<?xml version="1.0" encoding="utf-8"?>
<!-- Generator: Adobe Illustrator 21.0.2, SVG Export Plug-In . SVG Version: 6.00 Build 0)  -->
<svg version="1.1" id="Layer_1" xmlns="http://www.w3.org/2000/svg" xmlns:xlink="http://www.w3.org/1999/xlink" x="0px" y="0px"
	 viewBox="0 0 35.5 14.5" style="enable-background:new 0 0 35.5 14.5;" xml:space="preserve">
<style type="text/css">
	.st0{fill:#B3B3B3;}
	.st1{fill:none;stroke:#B3B3B3;stroke-width:0.25;stroke-miterlimit:10;}
</style>
<title>Artboard 1</title>
<g>
	<path class="st0" d="M7,9.4C6.8,9.5,6.4,9.6,5.9,9.6c-1.2,0-2.1-0.7-2.1-2.1c0-1.3,0.9-2.2,2.2-2.2c0.5,0,0.8,0.1,1,0.2L6.9,5.9
		C6.7,5.8,6.4,5.7,6,5.7c-1,0-1.6,0.6-1.6,1.7c0,1,0.6,1.7,1.6,1.7c0.3,0,0.7-0.1,0.9-0.2L7,9.4z"/>
	<path class="st0" d="M10.3,8c0,1.1-0.8,1.6-1.5,1.6C8,9.6,7.4,9,7.4,8c0-1,0.7-1.6,1.5-1.6C9.7,6.4,10.3,7.1,10.3,8z M7.9,8
		c0,0.7,0.4,1.1,0.9,1.1c0.5,0,0.9-0.5,0.9-1.2c0-0.5-0.3-1.1-0.9-1.1S7.9,7.4,7.9,8z"/>
	<path class="st0" d="M11,7.3c0-0.3,0-0.6,0-0.8h0.5l0,0.5h0c0.2-0.3,0.4-0.5,0.9-0.5c0.4,0,0.7,0.2,0.8,0.6h0
		c0.1-0.2,0.2-0.3,0.3-0.4c0.2-0.1,0.4-0.2,0.7-0.2c0.4,0,1,0.3,1,1.3v1.8h-0.5V7.8c0-0.6-0.2-0.9-0.6-0.9c-0.3,0-0.5,0.2-0.6,0.5
		c0,0.1,0,0.2,0,0.3v1.8h-0.5V7.7c0-0.5-0.2-0.8-0.6-0.8c-0.3,0-0.6,0.3-0.7,0.5c0,0.1,0,0.2,0,0.3v1.8H11V7.3z"/>
	<path class="st0" d="M16.2,9.5V6.9h-0.4V6.5h0.4V6.4c0-0.4,0.1-0.8,0.3-1C16.7,5.1,17,5,17.3,5c0.2,0,0.4,0,0.5,0.1l-0.1,0.4
		c-0.1,0-0.2-0.1-0.3-0.1c-0.5,0-0.6,0.4-0.6,0.9v0.2h0.7v0.4h-0.7v2.6H16.2z"/>
	<path class="st0" d="M18.1,6.5l0.7,1.8c0.1,0.2,0.1,0.4,0.2,0.6h0c0.1-0.2,0.1-0.4,0.2-0.6l0.6-1.8h0.6l-0.8,2.1
		c-0.4,1-0.7,1.6-1,1.9c-0.3,0.2-0.5,0.3-0.7,0.4l-0.1-0.5c0.1,0,0.3-0.1,0.5-0.3c0.1-0.1,0.3-0.3,0.5-0.6c0-0.1,0-0.1,0-0.1
		s0-0.1,0-0.1l-1.1-2.8H18.1z"/>
	<path class="st0" d="M21.5,9.5l-1.1-4.2h0.6l0.5,2.1c0.1,0.5,0.2,1,0.3,1.4h0c0.1-0.4,0.2-0.9,0.3-1.4l0.6-2.1h0.6l0.5,2.1
		c0.1,0.5,0.2,1,0.3,1.4h0c0.1-0.5,0.2-0.9,0.3-1.4L25,5.3h0.5l-1.2,4.2h-0.6l-0.5-2.2C23.2,6.8,23.1,6.4,23,6h0
		c-0.1,0.4-0.2,0.8-0.3,1.4l-0.6,2.2H21.5z"/>
	<path class="st0" d="M27.5,9.5l0-0.4h0c-0.2,0.2-0.5,0.4-0.9,0.4c-0.6,0-0.9-0.4-0.9-0.9c0-0.7,0.6-1.1,1.8-1.1V7.5
		c0-0.2-0.1-0.7-0.7-0.7c-0.3,0-0.6,0.1-0.8,0.2l-0.1-0.4c0.2-0.2,0.6-0.3,1-0.3c0.9,0,1.1,0.6,1.1,1.2v1.1c0,0.3,0,0.5,0,0.7H27.5z
		 M27.5,8c-0.6,0-1.3,0.1-1.3,0.7c0,0.4,0.2,0.5,0.5,0.5c0.4,0,0.6-0.2,0.7-0.5c0-0.1,0-0.1,0-0.2V8z"/>
	<path class="st0" d="M29,6.5l0.7,1.8c0.1,0.2,0.1,0.4,0.2,0.6h0c0.1-0.2,0.1-0.4,0.2-0.6l0.6-1.8h0.6l-0.8,2.1
		c-0.4,1-0.7,1.6-1,1.9c-0.3,0.2-0.5,0.3-0.7,0.4l-0.1-0.5c0.1,0,0.3-0.1,0.5-0.3c0.1-0.1,0.3-0.3,0.5-0.6c0-0.1,0-0.1,0-0.1
		s0-0.1,0-0.1l-1.1-2.8H29z"/>
</g>
<path class="st1" d="M31.5,11.6H3.7c-0.4,0-0.7-0.3-0.7-0.7V4.4c0-0.4,0.3-0.7,0.7-0.7h27.8c0.4,0,0.7,0.3,0.7,0.7v6.4
	C32.2,11.3,31.9,11.6,31.5,11.6z"/>
</svg>
